<?xml version="1.0" encoding="utf-8"?>
<!-- Generator: Adobe Illustrator 17.0.0, SVG Export Plug-In . SVG Version: 6.00 Build 0)  -->
<!DOCTYPE svg PUBLIC "-//W3C//DTD SVG 1.1//EN" "http://www.w3.org/Graphics/SVG/1.1/DTD/svg11.dtd">
<svg version="1.1" id="Capa_1" xmlns="http://www.w3.org/2000/svg" xmlns:xlink="http://www.w3.org/1999/xlink" x="0px" y="0px"
	 width="64px" height="64px" viewBox="0 0 64 64" enable-background="new 0 0 64 64" xml:space="preserve">
<path fill="#FFFFFF" d="M43.731,42.893c-6.234,6.238-16.387,6.24-22.625,0c-6.238-6.238-6.238-16.39,0-22.627
	c1.652-1.65,3.664-2.906,5.98-3.726c0.726-0.256,1.535-0.07,2.078,0.472c0.547,0.547,0.73,1.354,0.473,2.08
	c-1.566,4.422-0.5,9.207,2.781,12.488c3.277,3.279,8.062,4.344,12.488,2.781c0.726-0.258,1.535-0.072,2.078,0.473
	c0.547,0.543,0.73,1.354,0.472,2.08C46.641,39.23,45.383,41.243,43.731,42.893z M23.934,23.095c-4.679,4.68-4.679,12.293,0,16.971
	c5,5.002,13.516,4.551,17.875-1.02c-4.496,0.28-8.922-1.342-12.218-4.636c-3.297-3.295-4.918-7.721-4.637-12.217
	C24.594,22.474,24.255,22.775,23.934,23.095z"/>
</svg>
