<?xml version="1.0" encoding="utf-8"?>
<!-- Generator: Adobe Illustrator 17.0.0, SVG Export Plug-In . SVG Version: 6.00 Build 0)  -->
<!DOCTYPE svg PUBLIC "-//W3C//DTD SVG 1.1//EN" "http://www.w3.org/Graphics/SVG/1.1/DTD/svg11.dtd">
<svg version="1.1" id="Capa_1" xmlns="http://www.w3.org/2000/svg" xmlns:xlink="http://www.w3.org/1999/xlink" x="0px" y="0px"
	 width="64px" height="64px" viewBox="0 0 64 64" enable-background="new 0 0 64 64" xml:space="preserve">
<path fill-rule="evenodd" clip-rule="evenodd" fill="#FCBF09" d="M32,18c-7.719,0-14,6.281-14,14s6.281,14,14,14s14-6.281,14-14
	S39.719,18,32,18z M32,42c-5.524,0-10-4.476-10-10s4.476-10,10-10c5.524,0,10,4.476,10,10S37.524,42,32,42z"/>
<path fill-rule="evenodd" clip-rule="evenodd" fill="#FCBF09" d="M32,6c-1.106,0-2,0.894-2,2v4c0,1.106,0.894,2,2,2
	c1.106,0,2-0.894,2-2V8C34,6.894,33.106,6,32,6z"/>
<path fill-rule="evenodd" clip-rule="evenodd" fill="#FCBF09" d="M32,50c-1.106,0-2,0.894-2,2v4c0,1.106,0.894,2,2,2
	c1.106,0,2-0.894,2-2v-4C34,50.894,33.106,50,32,50z"/>
<path fill-rule="evenodd" clip-rule="evenodd" fill="#FCBF09" d="M50.383,13.613c-0.781-0.781-2.047-0.781-2.828,0l-2.828,2.828
	c-0.781,0.781-0.781,2.047,0,2.828c0.782,0.781,2.047,0.781,2.828,0l2.828-2.828C51.164,15.66,51.164,14.394,50.383,13.613z"/>
<path fill-rule="evenodd" clip-rule="evenodd" fill="#FCBF09" d="M19.274,44.73c-0.782-0.781-2.047-0.785-2.828,0l-2.828,2.828
	c-0.781,0.782-0.781,2.047,0,2.828c0.781,0.781,2.047,0.781,2.828,0l2.828-2.828C20.055,46.774,20.055,45.512,19.274,44.73z"/>
<path fill-rule="evenodd" clip-rule="evenodd" fill="#FCBF09" d="M6,32c0,1.106,0.894,2,2,2h4c1.106,0,2-0.894,2-2
	c0-1.106-0.894-2-2-2H8C6.894,30,6,30.894,6,32z"/>
<path fill-rule="evenodd" clip-rule="evenodd" fill="#FCBF09" d="M50,32c0,1.106,0.894,2,2,2h4c1.106,0,2-0.894,2-2
	c0-1.106-0.894-2-2-2h-4C50.894,30,50,30.894,50,32z"/>
<path fill-rule="evenodd" clip-rule="evenodd" fill="#FCBF09" d="M13.613,13.615c-0.781,0.781-0.781,2.047,0,2.828l2.828,2.828
	c0.781,0.781,2.047,0.781,2.828,0c0.781-0.781,0.781-2.047,0-2.828l-2.828-2.828C15.66,12.834,14.394,12.834,13.613,13.615z"/>
<path fill-rule="evenodd" clip-rule="evenodd" fill="#FCBF09" d="M44.73,44.726c-0.781,0.782-0.785,2.047,0,2.828l2.828,2.828
	c0.782,0.781,2.047,0.781,2.828,0s0.781-2.047,0-2.828l-2.828-2.828C46.774,43.945,45.512,43.945,44.73,44.726z"/>
</svg>
