<svg xmlns="http://www.w3.org/2000/svg" xmlns:xlink="http://www.w3.org/1999/xlink" preserveAspectRatio="xMidYMid" width="143" height="22" viewBox="0 0 143 22">
  <defs>
    <style>
      .cls-1 {
        fill: #fff;
        fill-rule: evenodd;
      }
    </style>
  </defs>
  <path d="M136.057,14.585 L136.057,22.445 L130.785,22.445 L130.785,14.585 L123.856,0.565 L129.438,0.565 L133.421,10.062 L137.390,0.565 L143.002,0.565 L136.057,14.585 ZM123.540,22.445 L118.713,6.696 L115.541,17.107 L110.291,17.107 L116.270,0.565 L121.156,0.565 L129.122,22.445 L123.540,22.445 ZM113.915,22.445 L97.086,22.445 L97.086,0.565 L102.284,0.565 L102.284,18.387 L115.151,18.387 L113.915,22.445 ZM86.775,15.021 L83.458,15.021 L83.458,22.445 L78.260,22.445 L78.260,0.565 L86.864,0.565 C88.512,0.565 89.971,0.873 91.239,1.489 C92.508,2.105 93.490,2.982 94.186,4.119 C94.882,5.256 95.229,6.545 95.229,7.988 C95.229,10.122 94.477,11.828 92.972,13.105 C91.466,14.382 89.400,15.021 86.775,15.021 ZM89.144,5.569 C88.601,4.958 87.860,4.647 86.923,4.637 L83.458,4.637 L83.458,10.948 L86.864,10.948 C87.870,10.948 88.638,10.693 89.166,10.182 C89.694,9.671 89.958,8.950 89.958,8.018 C89.958,6.996 89.687,6.180 89.144,5.569 ZM68.259,22.445 L62.949,22.445 L62.949,20.332 C61.871,21.898 59.632,22.992 55.942,22.992 C47.380,22.992 43.546,17.636 43.546,11.531 C43.546,5.463 47.380,0.018 55.942,0.018 C59.625,0.018 61.871,1.112 62.949,2.707 L62.949,0.565 L68.972,0.565 L68.972,7.129 L62.949,7.129 C62.949,4.394 60.274,2.206 57.559,2.206 C52.667,2.206 51.091,6.614 51.091,11.526 C51.091,16.468 52.667,20.804 57.559,20.804 C60.280,20.804 62.949,18.069 62.949,14.787 L59.715,14.787 L59.715,12.599 L62.949,12.599 L66.183,12.599 L70.010,12.599 L70.010,14.787 L68.259,14.787 L68.259,22.445 ZM45.401,22.445 L43.245,22.445 L35.700,22.445 L29.232,22.445 L25.998,22.445 L25.998,20.257 L29.232,20.257 L29.232,2.753 L25.998,2.753 L25.998,0.565 L29.232,0.565 L35.700,0.565 L38.934,0.565 L38.934,2.753 L35.700,2.753 L35.700,20.257 L42.712,20.257 L42.712,15.342 L42.779,15.342 C43.554,18.129 45.244,20.763 48.161,22.445 L45.401,22.445 Z" class="cls-1"/>
  <path d="M3.641,0.329 C2.023,-0.612 -0.000,0.564 -0.000,2.445 L-0.000,11.000 L-0.000,19.555 C-0.000,21.436 2.023,22.612 3.641,21.671 L22.000,11.000 L3.641,0.329 Z" class="cls-1"/>
</svg>
